<?xml version="1.0" standalone="no"?><!DOCTYPE svg PUBLIC "-//W3C//DTD SVG 1.1//EN" "http://www.w3.org/Graphics/SVG/1.1/DTD/svg11.dtd"><svg t="1685352072042" class="icon" viewBox="0 0 1024 1024" version="1.1" xmlns="http://www.w3.org/2000/svg" p-id="13629" xmlns:xlink="http://www.w3.org/1999/xlink" width="200" height="200"><path d="M32.045 959.91h959.91a32.045 32.045 0 1 1 0 64.09H32.045a32.045 32.045 0 1 1 0-64.09z m96.015-384.12c17.65 0 32.045 14.275 32.045 32.105v191.91a32.045 32.045 0 1 1-64.09 0v-191.91c0-17.65 14.457-32.106 32.045-32.106z m767.88-255.82c17.649 0 32.045 14.215 32.045 32.045v447.79a32.045 32.045 0 1 1-64.09 0v-447.79c0-17.649 14.456-32.045 32.045-32.045zM320.03 191.91c17.65 0 32.045 14.275 32.045 32.105v575.79a32.045 32.045 0 1 1-64.09 0v-575.85c0-17.589 14.456-32.045 32.045-32.045zM512 447.97c17.649 0 32.045 14.215 32.045 32.045v319.97a32.045 32.045 0 1 1-64.09 0v-320.15c0-17.65 14.456-31.865 32.045-31.865zM703.97 0c17.649 0 32.045 14.216 32.045 32.045v767.76a32.045 32.045 0 1 1-64.09 0V32.044C671.925 14.396 686.38 0 703.97 0z" fill="#8C8C8C" p-id="13630"></path></svg>